<svg xmlns="http://www.w3.org/2000/svg" viewBox="0 0 49 18.04">
	<title>glue</title>
	<path fill="currentColor" d="M11.64,5.75a2,2,0,0,0-2-2H2a2,2,0,0,0-2,2v6.16a2,2,0,0,0,2,2H6.49a0.2,0.2,0,0,0,.2-0.2V9a0.2,0.2,0,0,0-.2-0.2H5.24A0.2,0.2,0,0,0,5,9v3.3H2a0.37,0.37,0,0,1-.35-0.35V5.75A0.37,0.37,0,0,1,2,5.4H9.64a0.37,0.37,0,0,1,.35.35v6.51H8.55a0.2,0.2,0,0,0-.2.2v1.26a0.2,0.2,0,0,0,.2.2h2.89a0.2,0.2,0,0,0,.2-0.2v-8Z"/>
	<path d="M22.47,13.42a4.32,4.32,0,0,1-1.89.5,3.84,3.84,0,0,1-2.8-1.08A3.85,3.85,0,0,1,16.71,10V7.61a3.83,3.83,0,0,1,1.06-2.78,3.84,3.84,0,0,1,2.8-1.08,9.32,9.32,0,0,1,3,.5,1.25,1.25,0,0,1,.85,1.18v8.75A3.85,3.85,0,0,1,23.37,17,3.79,3.79,0,0,1,20.57,18a6.69,6.69,0,0,1-2.8-.6,1,1,0,0,1-.6-0.89,1,1,0,0,1,1-.93,1.24,1.24,0,0,1,.44.12,5.09,5.09,0,0,0,2,.46,1.84,1.84,0,0,0,1.89-2V13.42Zm0-7.59a7.58,7.58,0,0,0-1.89-.25A1.72,1.72,0,0,0,18.7,7.45v2.76a1.71,1.71,0,0,0,1.87,1.87,2.93,2.93,0,0,0,1.89-.69V5.83Z"/>
	<path class="cls-2" d="M27,1a1,1,0,1,1,2,0V12.92a1,1,0,1,1-2,0V1Z"/>
	<path class="cls-2" d="M37.18,4.75a1,1,0,0,1,1-1,1,1,0,0,1,1,1v7.49a1.25,1.25,0,0,1-.85,1.18,9.24,9.24,0,0,1-3,.5,3.91,3.91,0,0,1-2.84-1,3.91,3.91,0,0,1-1-2.84V4.75a1,1,0,1,1,2,0V10.2a1.71,1.71,0,0,0,1.87,1.87,7.58,7.58,0,0,0,1.89-.23V4.75Z"/>
	<path class="cls-2" d="M43.25,9.77a2.79,2.79,0,0,0,.39,1.66,1.78,1.78,0,0,0,1.49.66,5.17,5.17,0,0,0,2.08-.5,1,1,0,0,1,.41-0.1,1,1,0,0,1,.95.91,0.92,0.92,0,0,1-.5.87,6.72,6.72,0,0,1-2.93.66,3.84,3.84,0,0,1-2.8-1.08A3.85,3.85,0,0,1,41.26,10V7.61a3.83,3.83,0,0,1,1.06-2.78,3.84,3.84,0,0,1,2.8-1.08,3.78,3.78,0,0,1,2.8,1.08A3.85,3.85,0,0,1,49,7.61V8.52a1.25,1.25,0,0,1-1.25,1.26h-4.5ZM47,7.94c0-1.6-.66-2.36-1.89-2.36s-1.87.73-1.87,2.36H47Z"/>
</svg>
