<svg id="3b7e70bf-f2b0-4533-9363-dbbb50853c77" data-name="tel" xmlns="http://www.w3.org/2000/svg" viewBox="0 0 40 40" height="16" width="16">
  <title>tel</title>
  <path style="fill:currentColor" class="a0c83086-39e1-451b-bbcc-519f4d4222f0" d="M13,16.46c-1.15-1.15,1-5,1-5a5.09,5.09,0,0,0-.73-4.93L8.53,1a2.68,2.68,0,0,0-4-.16L1.26,4.09c-2,2-1.25,5.87-.21,8.49,0,0,1.32,4.4,11.64,14.72S27.42,38.95,27.42,38.95c2.62,1,6.48,1.8,8.49-.21l3.27-3.27a2.68,2.68,0,0,0-.16-4l-5.55-4.75A5.09,5.09,0,0,0,28.55,26s-4,2-5.18.82l-5.09-5.09Z"/>
</svg>
