<svg xmlns="http://www.w3.org/2000/svg" viewBox="0 0 18 14.62"  width="18" height="16">
	<title>twitter</title>
	<path fill="currentColor" style="fill:currentColor" d="M5.66,15.08A10.43,10.43,0,0,0,16.17,4.58c0-.16,0-.32,0-.48A7.51,7.51,0,0,0,18,2.19a7.37,7.37,0,0,1-2.12.58,3.71,3.71,0,0,0,1.62-2,7.4,7.4,0,0,1-2.34.9A3.7,3.7,0,0,0,8.86,5,10.48,10.48,0,0,1,1.25,1.13,3.7,3.7,0,0,0,2.4,6.06,3.66,3.66,0,0,1,.72,5.6v0a3.69,3.69,0,0,0,3,3.62A3.69,3.69,0,0,1,2,9.33a3.7,3.7,0,0,0,3.45,2.56A7.41,7.41,0,0,1,.88,13.48,7.52,7.52,0,0,1,0,13.42a10.45,10.45,0,0,0,5.66,1.66" transform="translate(0 -0.46)"/>
</svg>
