<svg id="77a80161-e444-4696-affa-1d9c61a7776e" data-name="youtube" xmlns="http://www.w3.org/2000/svg" viewBox="0 0 181.45 40.51"  height="20" width="90">
  <title>youtube</title>
  <path style="fill:currentColor" class="7cfc3d8a-2335-4ca1-ab17-69a41f59bc96" d="M84.16,38.85a6.3,6.3,0,0,1-2.44-3.6,23.73,23.73,0,0,1-.73-6.5V25.07a21.35,21.35,0,0,1,.83-6.58,6.59,6.59,0,0,1,2.59-3.62A8.39,8.39,0,0,1,89,13.73a7.86,7.86,0,0,1,4.51,1.16A6.64,6.64,0,0,1,96,18.51a22.18,22.18,0,0,1,.78,6.55v3.68A22.71,22.71,0,0,1,96,35.26a6.35,6.35,0,0,1-2.49,3.6A8.36,8.36,0,0,1,88.89,40,8.29,8.29,0,0,1,84.16,38.85Zm6.42-4a12.47,12.47,0,0,0,.48-4.05V22.92a12.09,12.09,0,0,0-.48-4,1.72,1.72,0,0,0-3.31,0,12.31,12.31,0,0,0-.48,4v7.91a12.83,12.83,0,0,0,.45,4.05,1.67,1.67,0,0,0,1.66,1.24A1.71,1.71,0,0,0,90.58,34.87Z" transform="translate(-0.17 -2)"/>
  <path style="fill:currentColor" class="7cfc3d8a-2335-4ca1-ab17-69a41f59bc96" d="M172.05,28.82V30.1a32.63,32.63,0,0,0,.15,3.66,3.43,3.43,0,0,0,.6,1.78,1.73,1.73,0,0,0,1.41.56,1.77,1.77,0,0,0,1.76-1,8.75,8.75,0,0,0,.52-3.31l4.93,0.29a8,8,0,0,1,0,.91,6.74,6.74,0,0,1-1.92,5.26A7.82,7.82,0,0,1,174.08,40q-4.23,0-5.92-2.65c-1.13-1.77-1.69-4.49-1.69-8.19V24.71c0-3.81.59-6.58,1.76-8.34s3.18-2.62,6-2.62a8,8,0,0,1,4.51,1.08A5.79,5.79,0,0,1,181,18.18a24.41,24.41,0,0,1,.64,6.29v4.35h-9.57Zm0.73-10.68a3.59,3.59,0,0,0-.58,1.76,33.06,33.06,0,0,0-.15,3.7v1.82h4.18V23.6a30.62,30.62,0,0,0-.17-3.7,3.58,3.58,0,0,0-.6-1.78,1.66,1.66,0,0,0-1.34-.52A1.59,1.59,0,0,0,172.78,18.14Z" transform="translate(-0.17 -2)"/>
  <path style="fill:currentColor" id="d030b4f3-0d5d-4a09-986e-0b913eee649a" data-name="&lt;Path&gt;" class="7cfc3d8a-2335-4ca1-ab17-69a41f59bc96" d="M70.26,28.34L63.76,4.87h5.67l2.27,10.63c0.58,2.62,1,4.85,1.28,6.7h0.17q0.29-2,1.28-6.67L76.79,4.86h5.67L75.89,28.34V39.6H70.26V28.34Z" transform="translate(-0.17 -2)"/>
  <path style="fill:currentColor" id="5220dd3d-f621-41a0-ab88-16f80b6ea93e" data-name="&lt;Path&gt;" class="7cfc3d8a-2335-4ca1-ab17-69a41f59bc96" d="M115.24,14.23V39.59h-4.46l-0.5-3.1h-0.12A5.84,5.84,0,0,1,104.7,40,4.3,4.3,0,0,1,101,38.35a8.88,8.88,0,0,1-1.2-5.17V14.23h5.71V32.85a5.68,5.68,0,0,0,.37,2.42,1.3,1.3,0,0,0,1.24.73,2.52,2.52,0,0,0,1.43-.45,2.85,2.85,0,0,0,1-1.16V14.23h5.71Z" transform="translate(-0.17 -2)"/>
  <path style="fill:currentColor" id="1056ca08-d5d4-45a5-9125-7564e0b0fb57" data-name="&lt;Path&gt;" class="7cfc3d8a-2335-4ca1-ab17-69a41f59bc96" d="M144.54,14.23V39.59h-4.46l-0.5-3.1h-0.12A5.84,5.84,0,0,1,134,40a4.3,4.3,0,0,1-3.73-1.66,8.88,8.88,0,0,1-1.2-5.17V14.23h5.71V32.85a5.68,5.68,0,0,0,.37,2.42,1.3,1.3,0,0,0,1.24.73,2.52,2.52,0,0,0,1.43-.45,2.85,2.85,0,0,0,1-1.16V14.23h5.71Z" transform="translate(-0.17 -2)"/>
  <path style="fill:currentColor" id="40bae002-3ea1-4cbe-b5bf-407e7d42fb1c" data-name="&lt;Path&gt;" class="7cfc3d8a-2335-4ca1-ab17-69a41f59bc96" d="M130.76,9.47h-5.67V39.59H119.5V9.47h-5.67V4.87h16.92V9.47h0Z" transform="translate(-0.17 -2)"/>
  <path style="fill:currentColor" class="7cfc3d8a-2335-4ca1-ab17-69a41f59bc96" d="M163.44,18.29a6.56,6.56,0,0,0-1.68-3.48,4.49,4.49,0,0,0-3.19-1.08,5.24,5.24,0,0,0-2.94.89A6,6,0,0,0,153.53,17h0V3.59H148v36h4.71l0.58-2.4h0.12a4.84,4.84,0,0,0,2,2,5.88,5.88,0,0,0,2.94.75,4.5,4.5,0,0,0,4.26-2.67q1.37-2.67,1.36-8.34v-4A33,33,0,0,0,163.44,18.29ZM158.2,28.63A31.22,31.22,0,0,1,158,33a4.65,4.65,0,0,1-.76,2.24,1.76,1.76,0,0,1-1.45.66,2.68,2.68,0,0,1-1.31-.33,2.54,2.54,0,0,1-1-1V20.15a3.6,3.6,0,0,1,1-1.69,2.19,2.19,0,0,1,1.53-.66,1.54,1.54,0,0,1,1.34.68,5.36,5.36,0,0,1,.66,2.29,44.18,44.18,0,0,1,.18,4.59v3.28h0Z" transform="translate(-0.17 -2)"/>
  <path style="fill:currentColor" class="7cfc3d8a-2335-4ca1-ab17-69a41f59bc96" d="M58,22.25s0,9.42-1.21,13.93a7.26,7.26,0,0,1-5.12,5.12C47.2,42.51,29.1,42.51,29.1,42.51S11,42.51,6.49,41.3a7.26,7.26,0,0,1-5.12-5.12C0.17,31.67.17,22.25,0.17,22.25s0-9.42,1.21-13.93A7.26,7.26,0,0,1,6.49,3.21C11,2,29.1,2,29.1,2S47.2,2,51.71,3.21a7.26,7.26,0,0,1,5.12,5.12C58,12.84,58,22.25,58,22.25ZM23.32,30.93l15-8.68-15-8.68V30.93Z" transform="translate(-0.17 -2)"/>
</svg>
