<svg xmlns="http://www.w3.org/2000/svg" xmlns:xlink="http://www.w3.org/1999/xlink" width="94.71" height="420.05"><symbol id="youtube" viewBox="0 0 181.45 40.51"><title>youtube</title><path class="7cfc3d8a-2335-4ca1-ab17-69a41f59bc96" d="M84.16 38.85a6.3 6.3 0 0 1-2.44-3.6 23.73 23.73 0 0 1-.73-6.5v-3.68a21.35 21.35 0 0 1 .83-6.58 6.59 6.59 0 0 1 2.59-3.62A8.39 8.39 0 0 1 89 13.73a7.86 7.86 0 0 1 4.51 1.16A6.64 6.64 0 0 1 96 18.51a22.18 22.18 0 0 1 .78 6.55v3.68a22.71 22.71 0 0 1-.78 6.52 6.35 6.35 0 0 1-2.49 3.6A8.36 8.36 0 0 1 88.89 40a8.29 8.29 0 0 1-4.73-1.15zm6.42-4a12.47 12.47 0 0 0 .48-4.05v-7.88a12.09 12.09 0 0 0-.48-4 1.72 1.72 0 0 0-3.31 0 12.31 12.31 0 0 0-.48 4v7.91a12.83 12.83 0 0 0 .45 4.05 1.67 1.67 0 0 0 1.66 1.24 1.71 1.71 0 0 0 1.68-1.25zM172.05 28.82v1.28a32.63 32.63 0 0 0 .15 3.66 3.43 3.43 0 0 0 .6 1.78 1.73 1.73 0 0 0 1.41.56 1.77 1.77 0 0 0 1.76-1 8.75 8.75 0 0 0 .52-3.31l4.93.29a8 8 0 0 1 0 .91 6.74 6.74 0 0 1-1.92 5.26 7.82 7.82 0 0 1-5.42 1.75q-4.23 0-5.92-2.65c-1.13-1.77-1.69-4.49-1.69-8.19v-4.45c0-3.81.59-6.58 1.76-8.34s3.18-2.62 6-2.62a8 8 0 0 1 4.51 1.08 5.79 5.79 0 0 1 2.26 3.35 24.41 24.41 0 0 1 .64 6.29v4.35h-9.57zm.73-10.68a3.59 3.59 0 0 0-.58 1.76 33.06 33.06 0 0 0-.15 3.7v1.82h4.18V23.6a30.62 30.62 0 0 0-.17-3.7 3.58 3.58 0 0 0-.6-1.78 1.66 1.66 0 0 0-1.34-.52 1.59 1.59 0 0 0-1.34.54z" transform="translate(-.17 -2)" fill="currentColor"/><path id="d030b4f3-0d5d-4a09-986e-0b913eee649a" data-name="&lt;Path&gt;" class="7cfc3d8a-2335-4ca1-ab17-69a41f59bc96" d="M70.26 28.34l-6.5-23.47h5.67L71.7 15.5c.58 2.62 1 4.85 1.28 6.7h.17q.29-2 1.28-6.67l2.36-10.67h5.67l-6.57 23.48V39.6h-5.63V28.34z" transform="translate(-.17 -2)" fill="currentColor"/><path id="5220dd3d-f621-41a0-ab88-16f80b6ea93e" data-name="&lt;Path&gt;" class="7cfc3d8a-2335-4ca1-ab17-69a41f59bc96" d="M115.24 14.23v25.36h-4.46l-.5-3.1h-.12A5.84 5.84 0 0 1 104.7 40a4.3 4.3 0 0 1-3.7-1.65 8.88 8.88 0 0 1-1.2-5.17V14.23h5.71v18.62a5.68 5.68 0 0 0 .37 2.42 1.3 1.3 0 0 0 1.24.73 2.52 2.52 0 0 0 1.43-.45 2.85 2.85 0 0 0 1-1.16V14.23h5.71z" transform="translate(-.17 -2)" fill="currentColor"/><path id="1056ca08-d5d4-45a5-9125-7564e0b0fb57" data-name="&lt;Path&gt;" class="7cfc3d8a-2335-4ca1-ab17-69a41f59bc96" d="M144.54 14.23v25.36h-4.46l-.5-3.1h-.12A5.84 5.84 0 0 1 134 40a4.3 4.3 0 0 1-3.73-1.66 8.88 8.88 0 0 1-1.2-5.17V14.23h5.71v18.62a5.68 5.68 0 0 0 .37 2.42 1.3 1.3 0 0 0 1.24.73 2.52 2.52 0 0 0 1.43-.45 2.85 2.85 0 0 0 1-1.16V14.23h5.71z" transform="translate(-.17 -2)" fill="currentColor"/><path id="40bae002-3ea1-4cbe-b5bf-407e7d42fb1c" data-name="&lt;Path&gt;" class="7cfc3d8a-2335-4ca1-ab17-69a41f59bc96" d="M130.76 9.47h-5.67v30.12h-5.59V9.47h-5.67v-4.6h16.92v4.6z" transform="translate(-.17 -2)" fill="currentColor"/><path class="7cfc3d8a-2335-4ca1-ab17-69a41f59bc96" d="M163.44 18.29a6.56 6.56 0 0 0-1.68-3.48 4.49 4.49 0 0 0-3.19-1.08 5.24 5.24 0 0 0-2.94.89 6 6 0 0 0-2.1 2.38V3.59H148v36h4.71l.58-2.4h.12a4.84 4.84 0 0 0 2 2 5.88 5.88 0 0 0 2.94.75 4.5 4.5 0 0 0 4.26-2.67q1.37-2.67 1.36-8.34v-4a33 33 0 0 0-.53-6.64zm-5.24 10.34A31.22 31.22 0 0 1 158 33a4.65 4.65 0 0 1-.76 2.24 1.76 1.76 0 0 1-1.45.66 2.68 2.68 0 0 1-1.31-.33 2.54 2.54 0 0 1-1-1V20.15a3.6 3.6 0 0 1 1-1.69 2.19 2.19 0 0 1 1.53-.66 1.54 1.54 0 0 1 1.34.68 5.36 5.36 0 0 1 .66 2.29 44.18 44.18 0 0 1 .18 4.59v3.28zM58 22.25s0 9.42-1.21 13.93a7.26 7.26 0 0 1-5.12 5.12c-4.47 1.21-22.57 1.21-22.57 1.21s-18.1 0-22.61-1.21a7.26 7.26 0 0 1-5.12-5.12C.17 31.67.17 22.25.17 22.25s0-9.42 1.21-13.93a7.26 7.26 0 0 1 5.11-5.11C11 2 29.1 2 29.1 2s18.1 0 22.61 1.21a7.26 7.26 0 0 1 5.12 5.12C58 12.84 58 22.25 58 22.25zm-34.68 8.68l15-8.68-15-8.68v17.36z" transform="translate(-.17 -2)" fill="currentColor"/></symbol><symbol id="twitter" viewBox="0 0 18 14.62"><title>twitter</title><path fill="currentColor" d="M5.66 15.08a10.43 10.43 0 0 0 10.51-10.5V4.1A7.51 7.51 0 0 0 18 2.19a7.37 7.37 0 0 1-2.12.58 3.71 3.71 0 0 0 1.62-2 7.4 7.4 0 0 1-2.34.9A3.7 3.7 0 0 0 8.86 5a10.48 10.48 0 0 1-7.61-3.87A3.7 3.7 0 0 0 2.4 6.06 3.66 3.66 0 0 1 .72 5.6a3.69 3.69 0 0 0 3 3.62A3.69 3.69 0 0 1 2 9.33a3.7 3.7 0 0 0 3.45 2.56 7.41 7.41 0 0 1-4.57 1.59 7.52 7.52 0 0 1-.88-.06 10.45 10.45 0 0 0 5.66 1.66" transform="translate(0 -.46)"/></symbol><symbol id="tel" viewBox="0 0 40 40"><title>tel</title><path class="a0c83086-39e1-451b-bbcc-519f4d4222f0" d="M13 16.46c-1.15-1.15 1-5 1-5a5.09 5.09 0 0 0-.73-4.93L8.53 1a2.68 2.68 0 0 0-4-.16L1.26 4.09c-2 2-1.25 5.87-.21 8.49 0 0 1.32 4.4 11.64 14.72s14.73 11.65 14.73 11.65c2.62 1 6.48 1.8 8.49-.21l3.27-3.27a2.68 2.68 0 0 0-.16-4l-5.55-4.75a5.09 5.09 0 0 0-4.92-.72s-4 2-5.18.82l-5.09-5.09z" fill="currentColor"/></symbol><symbol id="select" viewBox="0 0 15 10"><title>arrow-down</title><g fill="none" fill-rule="evenodd"><path d="M.4 2.5L2.5.4l5 5L12.6.3l2.1 2.2-7.2 7.1z" id="arrow-down" fill-rule="nonzero" fill="currentColor"/></g></symbol><symbol id="menu" viewBox="0 0 15 14"><title>menu</title><path d="M0 0h15v2H0zM0 6h15v2H0zM0 12h15v2H0z"/></symbol><symbol id="logo" viewBox="0 0 94.71 51.13"><defs><style>.\30 8894d45-9795-4672-baf1-647afc040fec,.\31 7416301-b351-4209-9ed3-a04149ae7e00{isolation:isolate;font-family:Muli}.\30 8894d45-9795-4672-baf1-647afc040fec{font-size:33px;fill:#2d8eff;font-weight:700}.\31 7416301-b351-4209-9ed3-a04149ae7e00{font-size:18px;fill:#000a12}</style></defs><title>logo-acme</title><g id="e4814961-1476-4272-a9ae-90dd008528f0" data-name="Wireframes"><g id="90d94c39-4efb-42f4-8751-f477b5779d3e" data-name="homepage"><g id="0b622e5d-b379-48c0-b4c2-247269c9f42b" data-name="header"><text class="08894d45-9795-4672-baf1-647afc040fec" transform="translate(0 28.25)">A<tspan x="24.02" y="0">CME</tspan></text><text class="17416301-b351-4209-9ed3-a04149ae7e00" transform="matrix(1.03 0 0 1 0 46.22)">wi<tspan x="19.64" y="0">r</tspan><tspan x="25.74" y="0">ef</tspan><tspan x="41.35" y="0">r</tspan><tspan x="47.45" y="0">ames</tspan></text></g></g></g></symbol><symbol id="linkedin" viewBox="0 0 44 44"><title>linkedin</title><path id="287cad6a-f908-401d-8fe8-5ce73471b21a" data-name="linkedin" class="8b0e1683-6917-416e-876d-4db9cfd18d99" d="M44 44h-9.11V29.71c0-3.41-.06-7.79-4.74-7.79s-5.47 3.71-5.47 7.55V44h-9.11V14.61h8.75v4h.12a9.58 9.58 0 0 1 8.63-4.75C42.3 13.88 44 20 44 27.88V44zM5.29 10.59a5.3 5.3 0 1 1 5.28-5.3 5.29 5.29 0 0 1-5.28 5.3zM9.85 44H.73V14.61h9.12V44z" fill="currentColor"/></symbol><symbol id="instagram" viewBox="0 0 85.5 85.4"><title>instagram</title><path fill="currentColor" d="M69 7.4H31.2A23.88 23.88 0 0 0 7.3 31.2V69a23.86 23.86 0 0 0 23.8 23.8H69A23.86 23.86 0 0 0 92.8 69V31.2A23.86 23.86 0 0 0 69 7.4zM85.8 69A16.84 16.84 0 0 1 69 85.8H31.2A16.84 16.84 0 0 1 14.4 69V31.2a16.84 16.84 0 0 1 16.8-16.8H69a16.84 16.84 0 0 1 16.8 16.8z" transform="translate(-7.3 -7.4)"/><path fill="currentColor" d="M50.1 28a22.1 22.1 0 1 0 22.1 22.1A22.17 22.17 0 0 0 50.1 28zm0 37.2a15.1 15.1 0 1 1 15.1-15.1 15.15 15.15 0 0 1-15.1 15.1z" transform="translate(-7.3 -7.4)"/><circle fill="currentColor" cx="65.5" cy="20.2" r="5.7"/></symbol><symbol id="google-plus" viewBox="0 0 32 30.48"><title>google-plus</title><path fill="currentColor" d="M19.81.76h-9.39c-4.3 0-8.34 3-8.34 6.79s2.92 6.84 7.3 6.84c.31 0 .6-.07.89-.09a3.74 3.74 0 0 0-.48 1.76 3.7 3.7 0 0 0 1.3 2.64H9.42C4.1 18.71 0 22.09 0 25.61s4.49 5.63 9.81 5.63c6.07 0 9.42-3.45 9.42-6.91 0-2.77-.82-4.44-3.35-6.23-.87-.61-2.52-2.1-2.52-3s.29-1.53 1.84-2.74a6 6 0 0 0 2.71-4.74c0-2.41-1-5.35-3.05-5.35h3.43zm-3.15 23a4.49 4.49 0 0 1 .12 1c0 2.8-1.81 5-7 5-3.68 0-6.34-2.33-6.34-5.13s3.3-5 7-5a8.13 8.13 0 0 1 2.38.38c2 1.35 3.43 2.14 3.84 3.72zm-5.9-10.47c-2.47-.07-4.82-2.76-5.24-6s1.23-5.73 3.7-5.66S14 4.31 14.46 7.56s-1.23 5.81-3.7 5.73z" transform="translate(0 -.76)"/><path fill="currentColor" d="M27.43 12.18V7.61h-3.05v4.57h-4.57v3.05h4.57v4.57h3.05v-4.57H32v-3.05h-4.57z"/></symbol><symbol id="glue" viewBox="0 0 49 18.04"><title>glue</title><path fill="currentColor" d="M11.64 5.75a2 2 0 0 0-2-2H2a2 2 0 0 0-2 2v6.16a2 2 0 0 0 2 2h4.49a.2.2 0 0 0 .2-.2V9a.2.2 0 0 0-.2-.2H5.24A.2.2 0 0 0 5 9v3.3H2a.37.37 0 0 1-.35-.35v-6.2A.37.37 0 0 1 2 5.4h7.64a.37.37 0 0 1 .35.35v6.51H8.55a.2.2 0 0 0-.2.2v1.26a.2.2 0 0 0 .2.2h2.89a.2.2 0 0 0 .2-.2v-8z"/><path d="M22.47 13.42a4.32 4.32 0 0 1-1.89.5 3.84 3.84 0 0 1-2.8-1.08A3.85 3.85 0 0 1 16.71 10V7.61a3.83 3.83 0 0 1 1.06-2.78 3.84 3.84 0 0 1 2.8-1.08 9.32 9.32 0 0 1 3 .5 1.25 1.25 0 0 1 .85 1.18v8.75A3.85 3.85 0 0 1 23.37 17a3.79 3.79 0 0 1-2.8 1 6.69 6.69 0 0 1-2.8-.6 1 1 0 0 1-.6-.89 1 1 0 0 1 1-.93 1.24 1.24 0 0 1 .44.12 5.09 5.09 0 0 0 2 .46 1.84 1.84 0 0 0 1.89-2v-.74zm0-7.59a7.58 7.58 0 0 0-1.89-.25 1.72 1.72 0 0 0-1.88 1.87v2.76a1.71 1.71 0 0 0 1.87 1.87 2.93 2.93 0 0 0 1.89-.69V5.83z"/><path class="cls-2" d="M27 1a1 1 0 1 1 2 0v11.92a1 1 0 1 1-2 0V1zM37.18 4.75a1 1 0 0 1 1-1 1 1 0 0 1 1 1v7.49a1.25 1.25 0 0 1-.85 1.18 9.24 9.24 0 0 1-3 .5 3.91 3.91 0 0 1-2.84-1 3.91 3.91 0 0 1-1-2.84V4.75a1 1 0 1 1 2 0v5.45a1.71 1.71 0 0 0 1.87 1.87 7.58 7.58 0 0 0 1.89-.23V4.75zM43.25 9.77a2.79 2.79 0 0 0 .39 1.66 1.78 1.78 0 0 0 1.49.66 5.17 5.17 0 0 0 2.08-.5 1 1 0 0 1 .41-.1 1 1 0 0 1 .95.91.92.92 0 0 1-.5.87 6.72 6.72 0 0 1-2.93.66 3.84 3.84 0 0 1-2.8-1.08A3.85 3.85 0 0 1 41.26 10V7.61a3.83 3.83 0 0 1 1.06-2.78 3.84 3.84 0 0 1 2.8-1.08 3.78 3.78 0 0 1 2.8 1.08A3.85 3.85 0 0 1 49 7.61v.91a1.25 1.25 0 0 1-1.25 1.26h-4.5zM47 7.94c0-1.6-.66-2.36-1.89-2.36s-1.87.73-1.87 2.36H47z"/></symbol><symbol id="facebook" viewBox="0 0 33.6 72"><title>test</title><path fill="currentColor" d="M673.26 361.95v9.91H666V384h7.26v36h14.92v-36h10s.94-5.81 1.4-12.17h-11.34v-8.29a3.52 3.52 0 0 1 3.24-2.9h8.13V348h-11.06c-15.65 0-15.28 12.13-15.28 13.95zm0 0" transform="translate(-666 -348)"/></symbol><symbol id="email" viewBox="0 0 40 34"><title>email</title><path d="M20 17.83L4 7c-.19-.1-.17-.17 0-.17h32.09c.17 0 .2.07.06.16zm16.36 15.35H3.64V11.76a.15.15 0 0 1 .26-.14L20 21.93l16.11-10.31a.15.15 0 0 1 .26.14v21.42zM36 3H4a4.13 4.13 0 0 0-4 4.21v25.5A4.14 4.14 0 0 0 4 37h32a4.14 4.14 0 0 0 4-4.25V7.21A4.14 4.14 0 0 0 36 3z" transform="translate(0 -2.96)" fill="currentColor"/></symbol><symbol id="close" viewBox="0 0 15 14"><title>close</title><path d="M0 12.579L13.491.015l1.515 1.411L1.515 13.99z" fill="currentColor"/><path d="M15 12.579L1.509.015-.006 1.426 13.485 13.99z" fill="currentColor"/></symbol><symbol id="check" viewBox="0 0 39.6 29.7"><title>check</title><path fill="currentColor" d="M9.86 27.31l2.83 2.83L39.56 3.27 36.73.44zM0 17.41l9.9 9.9 2.83-2.83-9.9-9.9z" transform="translate(.04 -.44)"/></symbol><symbol id="arrow-right" viewBox="0 0 11 16"><title>arrow-right</title><path d="M3 15.1L.9 13l5-5-5-5L3 .8 10.2 8z" fill-rule="nonzero" fill="currentColor"/></symbol><symbol id="arrow-left" viewBox="0 0 11 16"><title>arrow-left</title><path d="M8 .8L10.1 3l-5 5 5.1 5-2.1 2.1L.9 8z" fill-rule="nonzero" fill="currentColor"/></symbol><symbol id="alert" viewBox="0 0 80.05 70.7"><title>alert</title><path fill="currentColor" d="M79.1 63.3L44.3 3c-2.3-4-6.2-4-8.5 0L1 63.3c-2.3 4.1-.4 7.4 4.3 7.4h69.6c4.6 0 6.5-3.3 4.2-7.4zm-38.9-.6a5.7 5.7 0 1 1 0-11.4 5.76 5.76 0 0 1 5.7 5.7 5.7 5.7 0 0 1-5.7 5.7zM47 25.2l-.8 15.2a6.17 6.17 0 0 1-6 5.7h-.1a6.1 6.1 0 0 1-6-5.7l-1-15.2a5.31 5.31 0 0 1 5.3-5.7h3.3a5.31 5.31 0 0 1 5.3 5.7z" transform="translate(-.02)"/></symbol><use xlink:href="#alert" width="80.05" height="70.7"/><use xlink:href="#arrow-left" y="72.7" width="11" height="16"/><use xlink:href="#arrow-right" y="90.7" width="11" height="16"/><use xlink:href="#check" y="108.7" width="39.6" height="29.7"/><use xlink:href="#close" y="140.4" width="15" height="14"/><use xlink:href="#email" y="156.4" width="40" height="16"/><use xlink:href="#facebook" y="174.4" width="18" height="16"/><use xlink:href="#glue" y="192.4" width="49" height="18.04"/><use xlink:href="#google-plus" y="212.44" width="32" height="30.48"/><use xlink:href="#instagram" y="244.92" width="18" height="18"/><use xlink:href="#linkedin" y="264.92" width="16" height="16"/><use xlink:href="#logo" y="282.92" width="94.71" height="51.13"/><use xlink:href="#menu" y="336.05" width="15" height="14"/><use xlink:href="#select" y="352.05" width="15" height="10"/><use xlink:href="#tel" y="364.05" width="16" height="16"/><use xlink:href="#twitter" y="382.05" width="18" height="16"/><use xlink:href="#youtube" y="400.05" width="90" height="20"/></svg>