<svg id="Layer_1" data-name="Layer 1" xmlns="http://www.w3.org/2000/svg" viewBox="0 0 14.35 19.34"><title>clipboard</title><path d="M26.29,4.91H24.66v0A.69.69,0,0,0,24,4.18H22.78a1.85,1.85,0,0,0-3.58,0H18a.69.69,0,0,0-.69.69v0H15.64A1.84,1.84,0,0,0,13.8,6.75V20.3a1.84,1.84,0,0,0,1.84,1.84H26.31a1.84,1.84,0,0,0,1.84-1.84V6.75A1.88,1.88,0,0,0,26.29,4.91ZM21,4.18a.48.48,0,1,1-.48.48A.46.46,0,0,1,21,4.18Zm5.76,16.1a.46.46,0,0,1-.46.46H15.64a.46.46,0,0,1-.46-.46V6.75a.46.46,0,0,1,.46-.46h1.63v0A.69.69,0,0,0,18,7h6a.69.69,0,0,0,.69-.69v0h1.63a.46.46,0,0,1,.46.46V20.28Z" transform="translate(-13.8 -2.8)"/><path d="M24.43,14.53H17.5a.69.69,0,0,1,0-1.38h7a.68.68,0,0,1,.69.69A.7.7,0,0,1,24.43,14.53Z" transform="translate(-13.8 -2.8)"/><path d="M24.43,10.84H17.5a.69.69,0,1,1,0-1.38h7a.68.68,0,0,1,.69.69A.7.7,0,0,1,24.43,10.84Z" transform="translate(-13.8 -2.8)"/><path d="M24.43,18.23H17.5a.69.69,0,0,1,0-1.38h7a.68.68,0,0,1,.69.69A.7.7,0,0,1,24.43,18.23Z" transform="translate(-13.8 -2.8)"/></svg>