<svg id="4cf0d192-be2f-4986-806e-987cc68a2e54" data-name="email" xmlns="http://www.w3.org/2000/svg" viewBox="0 0 40 34" height="16">
  <title>email</title>
  <path style="fill:currentColor" d="M20,17.83L4,7C3.81,6.9,3.83,6.83,4,6.83H36.09c0.17,0,.2.07,0.06,0.16ZM36.36,33.18H3.64V11.76a0.15,0.15,0,0,1,.26-0.14L20,21.93,36.11,11.62a0.15,0.15,0,0,1,.26.14V33.18ZM36,3H4A4.13,4.13,0,0,0,0,7.21l0,25.5A4.14,4.14,0,0,0,4,37H36a4.14,4.14,0,0,0,4-4.25V7.21A4.14,4.14,0,0,0,36,3Z" transform="translate(0 -2.96)"/>
</svg>
