<svg xmlns="http://www.w3.org/2000/svg" viewBox="0 0 32 30.48">
	<title>google-plus</title>
	<path fill="currentColor" d="M19.81.76H10.42c-4.3,0-8.34,3-8.34,6.79S5,14.39,9.38,14.39c.31,0,.6-.07.89-.09a3.74,3.74,0,0,0-.48,1.76,3.7,3.7,0,0,0,1.3,2.64H9.42C4.1,18.71,0,22.09,0,25.61s4.49,5.63,9.81,5.63c6.07,0,9.42-3.45,9.42-6.91,0-2.77-.82-4.44-3.35-6.23-.87-.61-2.52-2.1-2.52-3s.29-1.53,1.84-2.74a6,6,0,0,0,2.71-4.74c0-2.41-1-5.35-3.05-5.35h3.43Zm-3.15,23a4.49,4.49,0,0,1,.12,1c0,2.8-1.81,5-7,5-3.68,0-6.34-2.33-6.34-5.13s3.3-5,7-5a8.13,8.13,0,0,1,2.38.38C14.82,21.36,16.25,22.15,16.66,23.73ZM10.76,13.29c-2.47-.07-4.82-2.76-5.24-6s1.23-5.73,3.7-5.66S14,4.31,14.46,7.56,13.23,13.37,10.76,13.29Z" transform="translate(0 -0.76)"/>
	<polygon fill="currentColor" points="27.43 12.18 27.43 7.61 24.38 7.61 24.38 12.18 19.81 12.18 19.81 15.23 24.38 15.23 24.38 19.8 27.43 19.8 27.43 15.23 32 15.23 32 12.18 27.43 12.18"/>
</svg>
