<svg xmlns="http://www.w3.org/2000/svg" viewBox="0 0 85.5 85.4"  width="18" height="18">
	<title>instagram</title>
	<path fill="currentColor" d="M69,7.4H31.2A23.88,23.88,0,0,0,7.3,31.2V69A23.86,23.86,0,0,0,31.1,92.8H69A23.86,23.86,0,0,0,92.8,69V31.2A23.86,23.86,0,0,0,69,7.4ZM85.8,69A16.84,16.84,0,0,1,69,85.8H31.2A16.84,16.84,0,0,1,14.4,69V31.2A16.84,16.84,0,0,1,31.2,14.4H69A16.84,16.84,0,0,1,85.8,31.2Z" transform="translate(-7.3 -7.4)"/>
	<path fill="currentColor" d="M50.1,28A22.1,22.1,0,1,0,72.2,50.1,22.17,22.17,0,0,0,50.1,28Zm0,37.2A15.1,15.1,0,1,1,65.2,50.1,15.15,15.15,0,0,1,50.1,65.2Z" transform="translate(-7.3 -7.4)"/>
	<circle fill="currentColor" cx="65.5" cy="20.2" r="5.7"/>
</svg>
