<svg xmlns="http://www.w3.org/2000/svg" viewBox="0 0 526.77 140.37" width="57" height="19">
  <title>icon-payment-paypal</title>
  <path fill="#283b82" d="M63.21,0h-41a5.69,5.69,0,0,0-5.63,4.81L0,109.88a3.41,3.41,0,0,0,3.38,3.94H23A5.69,5.69,0,0,0,28.61,109l4.47-28.34a5.69,5.69,0,0,1,5.62-4.81h13c27,0,42.57-13.06,46.63-38.94,1.83-11.32.08-20.22-5.22-26.45C87.25,3.63,76.93,0,63.21,0h0Zm4.73,38.37c-2.24,14.7-13.47,14.7-24.34,14.7H37.42l4.34-27.46a3.41,3.41,0,0,1,3.37-2.88H48c7.4,0,14.38,0,18,4.22,2.15,2.52,2.81,6.25,2,11.42" transform="translate(0 0)"/>
  <path fill="#283b82" d="M185.69,37.91H166.07a3.42,3.42,0,0,0-3.37,2.88l-0.87,5.49-1.37-2c-4.25-6.17-13.72-8.23-23.17-8.23-21.68,0-40.2,16.42-43.81,39.46C91.6,87,94.26,98,100.78,105.66c6,7,14.53,10,24.71,10a37.54,37.54,0,0,0,27.16-11.23l-0.87,5.45a3.41,3.41,0,0,0,3.37,4h17.67a5.69,5.69,0,0,0,5.63-4.81L189,41.85A3.4,3.4,0,0,0,185.69,37.91ZM158.34,76.1A21.87,21.87,0,0,1,136.2,94.83c-5.7,0-10.25-1.83-13.18-5.29s-4-8.33-3.08-13.79a22,22,0,0,1,22-18.88c5.57,0,10.1,1.85,13.09,5.34s4.18,8.45,3.32,13.88" transform="translate(0 0)"/>
  <path fill="#283b82" d="M290.18,37.91H270.47a5.71,5.71,0,0,0-4.71,2.5L238.56,80.46,227,42a5.71,5.71,0,0,0-5.46-4.06H202.19A3.42,3.42,0,0,0,199,42.43l21.72,63.73L200.25,135a3.41,3.41,0,0,0,2.79,5.39h19.69a5.68,5.68,0,0,0,4.68-2.44L293,43.27a3.41,3.41,0,0,0-2.8-5.36" transform="translate(0 0)"/>
  <path fill="#469bdb" d="M355.46,0h-41a5.69,5.69,0,0,0-5.62,4.81L292.29,109.88a3.41,3.41,0,0,0,3.37,3.94h21a4,4,0,0,0,3.93-3.37l4.7-29.78a5.69,5.69,0,0,1,5.62-4.81h13c27,0,42.57-13.06,46.64-38.94,1.84-11.32.07-20.22-5.23-26.45C379.5,3.63,369.18,0,355.46,0h0Zm4.73,38.37c-2.24,14.7-13.47,14.7-24.34,14.7h-6.18L334,25.63a3.4,3.4,0,0,1,3.37-2.88h2.83c7.39,0,14.38,0,18,4.22,2.15,2.52,2.8,6.25,2,11.42" transform="translate(0 0)"/>
  <path fill="#469bdb" d="M477.93,37.91H458.32A3.4,3.4,0,0,0,455,40.79l-0.87,5.49-1.38-2c-4.25-6.17-13.71-8.23-23.17-8.23-21.68,0-40.19,16.42-43.8,39.46C383.87,87,386.53,98,393,105.66c6,7,14.53,10,24.71,10a37.54,37.54,0,0,0,27.16-11.23L444,109.86a3.42,3.42,0,0,0,3.38,4h17.67a5.69,5.69,0,0,0,5.62-4.81l10.61-67.15a3.42,3.42,0,0,0-3.39-3.94h0ZM450.58,76.1a21.86,21.86,0,0,1-22.14,18.73c-5.69,0-10.25-1.83-13.17-5.29s-4-8.33-3.08-13.79a22,22,0,0,1,22-18.88c5.57,0,10.1,1.85,13.08,5.34s4.19,8.45,3.32,13.88" transform="translate(0 0)"/>
  <path fill="#469bdb" d="M501.06,2.89l-16.82,107a3.41,3.41,0,0,0,3.37,3.94h16.91a5.68,5.68,0,0,0,5.63-4.81L526.73,4A3.41,3.41,0,0,0,523.36,0H504.43a3.42,3.42,0,0,0-3.37,2.89" transform="translate(0 0)"/>
</svg>
