<svg xmlns="http://www.w3.org/2000/svg" viewBox="0 0 55.37 17.82">
  <title>icon-payment-visa</title>
  <path class="a" fill="#0066b2" d="M15.67,0.31l-4.3,11.83L10.86,9.59h0L9.34,1.86A1.93,1.93,0,0,0,7.2.31H0.08L0,0.6a16.94,16.94,0,0,1,4.72,2L8.65,17.51h4.7l7.18-17.2H15.67Z"/>
  <path class="b" fill="#f9a533" d="M10.86,9.59L9.34,1.86A1.93,1.93,0,0,0,7.2.31H0.08L0,0.6A17.56,17.56,0,0,1,6.7,3.93a13.39,13.39,0,0,1,4.16,5.66"/>
  <polygon class="a" fill="#0066b2" points="22.29 0.31 19.47 17.51 23.99 17.51 26.81 0.31 22.29 0.31"/>
  <path class="a" fill="#0066b2" d="M39.62,4.44l0.64-3.69a13.13,13.13,0,0,0-4-.75C34,0,28.65,1,28.65,5.69c0,4.44,6.25,4.5,6.25,6.83s-5.6,1.92-7.45.44l-0.67,3.86a12.73,12.73,0,0,0,5.1,1c3.08,0,7.73-1.58,7.73-5.89,0-4.47-6.3-4.89-6.3-6.83s4.4-1.7,6.33-.64"/>
  <path class="a" fill="#0066b2" d="M46.22,11.42L48.59,5l1.34,6.44H46.22v0Zm5,6.08h4.15L51.72,0.31H48.09A2.07,2.07,0,0,0,46,1.59L39.27,17.51H44L44.92,15h5.74Z"/>
</svg>
