<svg xmlns="http://www.w3.org/2000/svg" viewBox="0 0 116.5 90.61" width="37" height="32">
  <title>payment-mastercard</title>
  <path fill="#231f20" d="M21.2,90.11v-6a3.56,3.56,0,0,0-3.31-3.8H17.44A3.7,3.7,0,0,0,14.08,82a3.51,3.51,0,0,0-3.16-1.7,3.16,3.16,0,0,0-2.8,1.42V80.55H6v9.56h2.1V84.85a2.24,2.24,0,0,1,2.34-2.54c1.38,0,2.08.9,2.08,2.52v5.32h2.1v-5.3A2.25,2.25,0,0,1,17,82.31c1.42,0,2.1.9,2.1,2.52v5.32Zm31.07-9.56H48.85v-2.9h-2.1v2.9h-1.9v1.9h1.94v4.4c0,2.22.86,3.54,3.32,3.54a4.88,4.88,0,0,0,2.6-.74l-0.6-1.78a3.84,3.84,0,0,1-1.84.54,1.33,1.33,0,0,1-1.38-1.6V82.45h3.4ZM70,80.31a2.82,2.82,0,0,0-2.52,1.4V80.55H65.43v9.56h2.08V84.75c0-1.58.68-2.46,2-2.46a3.39,3.39,0,0,1,1.3.24l0.64-2A4.45,4.45,0,0,0,70,80.27Zm-26.82,1a7.15,7.15,0,0,0-3.9-1c-2.42,0-4,1.16-4,3.06,0,1.56,1.16,2.52,3.3,2.82l1,0.14c1.14,0.16,1.68.46,1.68,1,0,0.74-.76,1.16-2.18,1.16a5.09,5.09,0,0,1-3.18-1l-1,1.62A6.9,6.9,0,0,0,39,90.35c2.76,0,4.36-1.3,4.36-3.12s-1.26-2.56-3.34-2.86l-1-.14c-0.9-.12-1.62-0.3-1.62-0.94s0.68-1.12,1.82-1.12a6.16,6.16,0,0,1,3,.82Zm55.71-1a2.82,2.82,0,0,0-2.52,1.4V80.55H94.32v9.56H96.4V84.75c0-1.58.68-2.46,2-2.46a3.39,3.39,0,0,1,1.3.24l0.64-2a4.45,4.45,0,0,0-1.48-.26Zm-26.8,5a4.83,4.83,0,0,0,4.65,5H77.2a5,5,0,0,0,3.44-1.14l-1-1.68a4.2,4.2,0,0,1-2.5.86,3.07,3.07,0,0,1,0-6.12,4.2,4.2,0,0,1,2.5.86l1-1.68a5,5,0,0,0-3.44-1.14,4.83,4.83,0,0,0-5.1,4.55q0,0.23,0,.45v0Zm19.48,0V80.55H89.5v1.16a3.63,3.63,0,0,0-3-1.4,5,5,0,0,0,0,10,3.63,3.63,0,0,0,3-1.4v1.16h2.08V85.31Zm-7.74,0a2.87,2.87,0,1,1,0,.23Q83.83,85.42,83.84,85.31Zm-25.1-5a5,5,0,0,0,.14,10h0a5.81,5.81,0,0,0,4-1.3l-1-1.54a4.55,4.55,0,0,1-2.78,1,2.65,2.65,0,0,1-2.86-2.34h7.1v-0.8c0-3-1.86-5-4.54-5Zm0,1.86a2.37,2.37,0,0,1,2.42,2.32h-5a2.46,2.46,0,0,1,2.54-2.32h0Zm52.11,3.16V76.71h-2v5a3.63,3.63,0,0,0-3-1.4,5,5,0,0,0,0,10,3.63,3.63,0,0,0,3-1.4v1.16h2V85.33Zm3.47,3.39a1,1,0,0,1,.9.57,0.93,0.93,0,0,1,0,.74,1,1,0,0,1-.52.5,0.94,0.94,0,0,1-.38.08,1,1,0,0,1-.9-0.58,0.94,0.94,0,0,1,0-.74,1,1,0,0,1,.93-0.57h0Zm0,1.69a0.71,0.71,0,0,0,.29-0.06,0.75,0.75,0,0,0,.23-0.16,0.72,0.72,0,0,0-.23-1.16,0.72,0.72,0,0,0-.29-0.06A0.75,0.75,0,0,0,114,89a0.73,0.73,0,0,0-.24.16,0.73,0.73,0,0,0,.56,1.22h0Zm0.06-1.19a0.4,0.4,0,0,1,.26.08,0.25,0.25,0,0,1,.09.21,0.24,0.24,0,0,1-.07.18,0.35,0.35,0,0,1-.21.09l0.29,0.33h-0.23l-0.27-.33h-0.09v0.33H114V89.23h0.42Zm-0.22.17v0.24h0.22a0.21,0.21,0,0,0,.12,0,0.1,0.1,0,0,0,0-.09,0.1,0.1,0,0,0,0-.09,0.21,0.21,0,0,0-.12,0Zm-11-4.06a2.87,2.87,0,1,1,0,.23Q103.15,85.44,103.16,85.33Zm-70.23,0V80.55H30.85v1.16a3.63,3.63,0,0,0-3-1.4,5,5,0,0,0,0,10,3.63,3.63,0,0,0,3-1.4v1.16h2.08V85.33Zm-7.74,0a2.67,2.67,0,1,1,0,.25q0-.12,0-0.25h0Z"/>
  <rect fill="#ff5f00" x="42.5" y="7.7" width="31.5" height="56.61"/>
  <path fill="#eb001b" d="M44.5,36A35.94,35.94,0,0,1,58.25,7.7a36,36,0,1,0,0,56.61A35.94,35.94,0,0,1,44.5,36Z"/>
  <path fill="#f79e1b" d="M116.5,36a36,36,0,0,1-58.25,28.3,36,36,0,0,0,0-56.61A36,36,0,0,1,116.5,36h0Z"/>
  <path fill="#f79e1b" d="M113.06,58.31V57.15h0.47V56.91h-1.19v0.24h0.51v1.16h0.21Zm2.31,0v-1.4H115l-0.42,1-0.42-1h-0.32v1.4h0.26v-1l0.39,0.91h0.27l0.39-.91v1.06h0.21Z"/>
</svg>
