<svg xmlns="http://www.w3.org/2000/svg" viewBox="0 0 252.8 156.9" width="40" height="27">
  <title>payment-bancontact</title>
  <path fill="#005498" d="M225.3,27.5H147l-8,9L113.2,65.6h0l-8,9H28l7.8-9.1,3.7-4.3,7.8-9.1H11.8A12,12,0,0,0,0,64.2H0V89.8a12,12,0,0,0,11.8,12.1H148c6.5,0,15.4-4,19.7-9l20.6-23.4Z"/>
  <path fill="#ffd800" d="M241,0.2a12,12,0,0,1,11.8,12.1V37.8A12,12,0,0,1,241,49.9H205.6l7.9-9h0l3.9-4.5,7.9-9H147l-41.7,47H27.6l55.7-63L85.4,9c4.4-4.9,13.3-9,19.8-9H241V0.2Z"/>
  <path fill="#005498" d="M252.8,155.5v-3.7a0.81,0.81,0,0,0-1-.8h-2.4a1.34,1.34,0,0,1-1.3-.4,4.21,4.21,0,0,1-.2-1.9v-14h3.9a1,1,0,0,0,1-1v-3.9a1,1,0,0,0-1-1h-3.9v-5.1a0.85,0.85,0,0,0-.2-0.6,1.42,1.42,0,0,0-.6-0.2H247l-5.8,1a4.88,4.88,0,0,0-.7.3,0.86,0.86,0,0,0-.3.6v3.9h-3.9a1,1,0,0,0-1,1v3.2a0.6,0.6,0,0,0,.3.6,1.61,1.61,0,0,0,.7.4l3.9,0.6v14a16.08,16.08,0,0,0,.5,4.2,6.64,6.64,0,0,0,1.5,2.5,5.32,5.32,0,0,0,2.5,1.2,18.27,18.27,0,0,0,3.5.3,11.48,11.48,0,0,0,1.9-.1c0.5-.1,1.2-0.2,1.9-0.3a0.74,0.74,0,0,0,.8-0.8M232,155v-4.3a0.6,0.6,0,0,0-.3-0.6,1.42,1.42,0,0,0-.6-0.2H231a24.62,24.62,0,0,1-2.6.2,30.21,30.21,0,0,1-3.3.1,3.65,3.65,0,0,1-1.5-.3,3.81,3.81,0,0,1-1.3-.9,3.85,3.85,0,0,1-.8-1.7,10.06,10.06,0,0,1-.3-2.7v-4a10.06,10.06,0,0,1,.3-2.7,5.39,5.39,0,0,1,.8-1.7,3.81,3.81,0,0,1,1.3-.9,4,4,0,0,1,1.5-.3,30.21,30.21,0,0,1,3.3.1c0.8,0.1,1.7.1,2.6,0.2h0.1a0.85,0.85,0,0,0,.6-0.2,0.6,0.6,0,0,0,.3-0.6v-4.3a1,1,0,0,0-.2-0.7,2.93,2.93,0,0,0-.8-0.4c-0.7-.2-1.5-0.3-2.6-0.5a21.78,21.78,0,0,0-3.8-.2,11,11,0,0,0-8.2,3.1c-2,2.1-3.1,5.1-3.1,9.1v4c0,3.9,1,7,3.1,9.1a10.85,10.85,0,0,0,8.2,3.1c1.4,0,2.7-.1,3.8-0.2a24.29,24.29,0,0,0,2.6-.5,1.51,1.51,0,0,0,.8-0.4,0.75,0.75,0,0,0,.2-0.7m-31.3-5.1a10.66,10.66,0,0,1-1.9.7,7.61,7.61,0,0,1-2.1.3,4.74,4.74,0,0,1-2.3-.4c-0.5-.3-0.7-0.9-0.7-2v-0.4a6.05,6.05,0,0,1,.2-1.5,2.59,2.59,0,0,1,.7-1.1,2.62,2.62,0,0,1,1.3-.6,10.61,10.61,0,0,1,2.1-.2h2.7v5.2h0Zm7.6-11.7a11.69,11.69,0,0,0-.8-4.5,8.35,8.35,0,0,0-2.2-3,8.19,8.19,0,0,0-3.5-1.7,17.27,17.27,0,0,0-4.7-.6,35.93,35.93,0,0,0-4.7.3,20.83,20.83,0,0,0-3.6.7,1.07,1.07,0,0,0-.9,1.1v3.9a1.45,1.45,0,0,0,.2.7,1.42,1.42,0,0,0,.6.2h0.2c0.4,0,.9-0.1,1.4-0.1s1.2-.1,1.9-0.1,1.5-.1,2.3-0.1h2.3a4.76,4.76,0,0,1,2.6.6,3.11,3.11,0,0,1,1,2.7V140h-2.6c-4.1,0-7.2.6-9,1.9s-2.8,3.4-2.8,6.2v0.4a8.78,8.78,0,0,0,.7,3.9,7.31,7.31,0,0,0,1.9,2.6,8.16,8.16,0,0,0,2.6,1.4,10.55,10.55,0,0,0,3.1.4,10.25,10.25,0,0,0,3.7-.6,14.59,14.59,0,0,0,3-1.6v0.8a1,1,0,0,0,1,1h5.4a1,1,0,0,0,1-1V138.2h-0.1Zm-25.7,17.3v-3.7a0.81,0.81,0,0,0-1-.8h-2.4a1.34,1.34,0,0,1-1.3-.4,4.21,4.21,0,0,1-.2-1.9v-14h3.9a1,1,0,0,0,1-1v-3.9a1,1,0,0,0-1-1h-3.9v-5.1a0.85,0.85,0,0,0-.2-0.6,1.42,1.42,0,0,0-.6-0.2h-0.1l-5.8,1a4.87,4.87,0,0,0-.7.3,0.86,0.86,0,0,0-.3.6v3.9h-4a1,1,0,0,0-1,1v3.2a0.6,0.6,0,0,0,.3.6,1.61,1.61,0,0,0,.7.4l3.9,0.6v14a16.08,16.08,0,0,0,.5,4.2,6.64,6.64,0,0,0,1.5,2.5,5.32,5.32,0,0,0,2.5,1.2,18.27,18.27,0,0,0,3.5.3,11.48,11.48,0,0,0,1.9-.1c0.5-.1,1.2-0.2,1.9-0.3a0.77,0.77,0,0,0,.9-0.8m-21-.1v-16a20.24,20.24,0,0,0-.4-4.3,9.77,9.77,0,0,0-1.3-3.5,5.82,5.82,0,0,0-2.6-2.3,8.86,8.86,0,0,0-4.3-.9,13.09,13.09,0,0,0-4.1.6,14,14,0,0,0-3.8,2v-1.2a1,1,0,0,0-1-1h-5.4a1,1,0,0,0-1,1v25.6a1,1,0,0,0,1,1h5.8a1,1,0,0,0,1-1V136.5a25.57,25.57,0,0,1,2.4-1.1,5.7,5.7,0,0,1,2.2-.4,9,9,0,0,1,1.8.2,2.1,2.1,0,0,1,1.1.7,2.92,2.92,0,0,1,.5,1.4,13.42,13.42,0,0,1,.1,2.1v16a1,1,0,0,0,1,1h5.8a0.91,0.91,0,0,0,.7-0.3,0.79,0.79,0,0,0,.5-0.7m-36.4-11.1c0,3.9-1.4,5.9-4.3,5.9a3.68,3.68,0,0,1-3.2-1.5,7.71,7.71,0,0,1-1.1-4.4v-3.4a7.49,7.49,0,0,1,1.1-4.4,3.68,3.68,0,0,1,3.2-1.5c2.8,0,4.3,2,4.3,5.9v3.4Zm7.8-3.4a16.69,16.69,0,0,0-.8-5.2,10.9,10.9,0,0,0-2.3-3.9,10.08,10.08,0,0,0-3.8-2.5,15.47,15.47,0,0,0-10.4,0,10.08,10.08,0,0,0-3.8,2.5,10.9,10.9,0,0,0-2.3,3.9,16.69,16.69,0,0,0-.8,5.2v3.4a16.69,16.69,0,0,0,.8,5.2,10.9,10.9,0,0,0,2.3,3.9,10.08,10.08,0,0,0,3.8,2.5,15.47,15.47,0,0,0,10.4,0,10.08,10.08,0,0,0,3.8-2.5,10.9,10.9,0,0,0,2.3-3.9,16.69,16.69,0,0,0,.8-5.2v-3.4ZM106.3,155v-4.3a0.6,0.6,0,0,0-.3-0.6,1.45,1.45,0,0,0-.7-0.2h-0.1a24.62,24.62,0,0,1-2.6.2,30.21,30.21,0,0,1-3.3.1,3.65,3.65,0,0,1-1.5-.3,3.81,3.81,0,0,1-1.3-.9,3.85,3.85,0,0,1-.8-1.7,10.06,10.06,0,0,1-.3-2.7v-4a10.06,10.06,0,0,1,.3-2.7,5.39,5.39,0,0,1,.8-1.7,3.81,3.81,0,0,1,1.3-.9,4,4,0,0,1,1.5-.3,30.21,30.21,0,0,1,3.3.1c0.8,0.1,1.7.1,2.6,0.2h0.1a1.45,1.45,0,0,0,.7-0.2,0.6,0.6,0,0,0,.3-0.6v-4.3a1,1,0,0,0-.2-0.7,2.93,2.93,0,0,0-.8-0.4c-0.7-.2-1.5-0.3-2.6-0.5a21.78,21.78,0,0,0-3.8-.2,11,11,0,0,0-8.2,3.1c-2,2.1-3.1,5.1-3.1,9.1v4c0,3.9,1,7,3.1,9.1a10.85,10.85,0,0,0,8.2,3.1c1.4,0,2.7-.1,3.8-0.2s1.9-.3,2.6-0.5a1.51,1.51,0,0,0,.8-0.4,1.17,1.17,0,0,0,.2-0.7m-23.7.4v-16a20.24,20.24,0,0,0-.4-4.3,9.77,9.77,0,0,0-1.3-3.5,5.82,5.82,0,0,0-2.6-2.3,8.86,8.86,0,0,0-4.3-.9,13.09,13.09,0,0,0-4.1.6,14,14,0,0,0-3.8,2v-1.2a1,1,0,0,0-1-1H59.7a1,1,0,0,0-1,1v25.6a1,1,0,0,0,1,1h5.8a1,1,0,0,0,1-1V136.5a25.57,25.57,0,0,1,2.4-1.1,5.7,5.7,0,0,1,2.2-.4,9,9,0,0,1,1.8.2,2.1,2.1,0,0,1,1.1.7,2.92,2.92,0,0,1,.5,1.4,13.42,13.42,0,0,1,.1,2.1v16a1,1,0,0,0,1,1h5.8a0.91,0.91,0,0,0,.7-0.3,0.79,0.79,0,0,0,.5-0.7m-37.2-5.5a10.66,10.66,0,0,1-1.9.7,7.61,7.61,0,0,1-2.1.3,4.74,4.74,0,0,1-2.3-.4c-0.5-.3-0.7-0.9-0.7-2v-0.4a6.05,6.05,0,0,1,.2-1.5,2.59,2.59,0,0,1,.7-1.1,2.62,2.62,0,0,1,1.3-.6,10.61,10.61,0,0,1,2.1-.2h2.7v5.2Zm7.7-11.7a11.69,11.69,0,0,0-.8-4.5,8.35,8.35,0,0,0-2.2-3,8.19,8.19,0,0,0-3.5-1.7,17.27,17.27,0,0,0-4.7-.6,35.93,35.93,0,0,0-4.7.3,20.83,20.83,0,0,0-3.6.7,1.07,1.07,0,0,0-.9,1.1v3.9a1.45,1.45,0,0,0,.2.7,1.42,1.42,0,0,0,.6.2h0.2c0.4,0,.9-0.1,1.4-0.1s1.2-.1,2-0.1,1.5-.1,2.3-0.1h2.3a4.76,4.76,0,0,1,2.6.6,3.11,3.11,0,0,1,1,2.7V140H42.7c-4.1,0-7.2.6-9,1.9s-2.8,3.4-2.8,6.2v0.4a8.78,8.78,0,0,0,.7,3.9,7.31,7.31,0,0,0,1.9,2.6,8.16,8.16,0,0,0,2.6,1.4,10.55,10.55,0,0,0,3.1.4,10.25,10.25,0,0,0,3.7-.6,14.59,14.59,0,0,0,3-1.6v0.8a1,1,0,0,0,1,1h5.4a1,1,0,0,0,1-1V138.2H53.1Zm-34.4,7.6a3.81,3.81,0,0,1-1.4,3.1c-0.9.7-2.7,1.1-5.1,1.1h-4v-9h5.4c1.9,0,3.3.4,4,1.3a4.82,4.82,0,0,1,1.1,3v0.5Zm-0.2-14.3a7.72,7.72,0,0,1-.2,1.5,2.55,2.55,0,0,1-.8,1.2,5.3,5.3,0,0,1-1.5.8,7.8,7.8,0,0,1-2.4.3H8.2V127h3.7c2.5,0,4.2.3,5.2,0.9a3.16,3.16,0,0,1,1.5,2.9l-0.1.7h0Zm8.2,13.8a7.5,7.5,0,0,0-1.2-4.3,7.6,7.6,0,0,0-3.1-2.8,6.78,6.78,0,0,0,3-2.8,8.77,8.77,0,0,0,1.1-4.2v-0.9a10,10,0,0,0-1.1-4.8,8.38,8.38,0,0,0-3.1-3.1,15,15,0,0,0-4.8-1.7,38.92,38.92,0,0,0-6.2-.5H8.9c-0.8,0-1.6.1-2.4,0.1a15,15,0,0,0-2.2.2c-0.7.1-1.2,0.1-1.6,0.2a3.4,3.4,0,0,0-2,.9,3.34,3.34,0,0,0-.6,2.3v29.3a3.52,3.52,0,0,0,.6,2.3,4.14,4.14,0,0,0,2,.9,8.81,8.81,0,0,0,1.7.2c0.7,0.1,1.4.1,2.2,0.2a19.27,19.27,0,0,0,2.4.1h2.5a36.06,36.06,0,0,0,5.9-.5,14.39,14.39,0,0,0,4.8-1.7,9.48,9.48,0,0,0,3.3-3.3,10.66,10.66,0,0,0,1.2-5.3v-0.8h0Z"/>
</svg>
