<svg xmlns="http://www.w3.org/2000/svg" viewBox="0 0 116.5 90.61" width="37" height="32">
  <title>payment-maestro</title>
  <path d="M35.25,90.11v-6A3.55,3.55,0,0,0,32,80.32H31.5A3.7,3.7,0,0,0,28.14,82,3.51,3.51,0,0,0,25,80.32a3.16,3.16,0,0,0-2.8,1.42V80.56H20.1v9.55h2.1V84.82a2.23,2.23,0,0,1,2.34-2.54c1.38,0,2.08.9,2.08,2.52v5.31h2.1V84.82a2.25,2.25,0,0,1,2.34-2.54c1.42,0,2.1.9,2.1,2.52v5.31h2.09Zm11.7-4.77V80.57h-2.1v1.16a3.62,3.62,0,0,0-3-1.4,5,5,0,1,0,0,10,3.62,3.62,0,0,0,3-1.4v1.16h2.08Zm-7.73,0a2.89,2.89,0,1,1,2.9,3.06,2.86,2.86,0,0,1-2.93-2.79q0-.13,0-0.27h0Zm52.17-5a5.38,5.38,0,0,1,2,.38A5,5,0,0,1,95,81.78a4.84,4.84,0,0,1,1.08,1.59,5.3,5.3,0,0,1,0,4A4.83,4.83,0,0,1,95,89,5,5,0,0,1,93.39,90a5.66,5.66,0,0,1-4.1,0A4.94,4.94,0,0,1,87.67,89a4.88,4.88,0,0,1-1.07-1.59,5.31,5.31,0,0,1,0-4,4.88,4.88,0,0,1,1.07-1.59,4.94,4.94,0,0,1,1.62-1.06,5.38,5.38,0,0,1,2.08-.41Zm0,2a3.1,3.1,0,0,0-1.19.22,2.81,2.81,0,0,0-1,.63,2.93,2.93,0,0,0-.63,1,3.47,3.47,0,0,0,0,2.48,2.92,2.92,0,0,0,.63,1,2.8,2.8,0,0,0,1,.63,3.25,3.25,0,0,0,2.37,0,2.86,2.86,0,0,0,1-.63,2.9,2.9,0,0,0,.63-1,3.47,3.47,0,0,0,0-2.48,2.9,2.9,0,0,0-.63-1,2.86,2.86,0,0,0-1-.63,3.1,3.1,0,0,0-1.2-.28Zm-33.14,3c0-3-1.86-5-4.53-5a5,5,0,0,0,.14,10A5.8,5.8,0,0,0,57.77,89l-1-1.54a4.55,4.55,0,0,1-2.78,1,2.65,2.65,0,0,1-2.86-2.34h7.09A6.53,6.53,0,0,0,58.25,85.34Zm-7.11-.84a2.46,2.46,0,0,1,2.51-2.31,2.37,2.37,0,0,1,2.42,2.32H51.14ZM67,83a6.15,6.15,0,0,0-3-.82c-1.14,0-1.82.42-1.82,1.12s0.72,0.82,1.62.94l1,0.14c2.08,0.3,3.34,1.18,3.34,2.86s-1.6,3.12-4.35,3.12a6.89,6.89,0,0,1-4.13-1.24l1-1.62a5.09,5.09,0,0,0,3.18,1c1.42,0,2.18-.42,2.18-1.16,0-.54-0.54-0.84-1.68-1l-1-.14c-2.14-.3-3.3-1.26-3.3-2.82,0-1.9,1.56-3.06,4-3.06a7.14,7.14,0,0,1,3.89,1Zm10-.54H73.61v4.31c0,1,.34,1.6,1.38,1.6a3.84,3.84,0,0,0,1.84-.54l0.6,1.78a4.88,4.88,0,0,1-2.6.74c-2.46,0-3.32-1.32-3.32-3.54V82.46H69.57v-1.9h1.94v-2.9h2.1v2.9H77v1.9Zm7.19-2.14a4.44,4.44,0,0,1,1.48.26l-0.64,2a3.38,3.38,0,0,0-1.3-.24c-1.36,0-2,.88-2,2.46v5.35H79.65V80.6h2.06v1.16a2.82,2.82,0,0,1,2.52-1.4Zm14.38,8.4a1,1,0,0,1,.9.57,0.93,0.93,0,0,1,0,.74,1,1,0,0,1-.52.5,0.94,0.94,0,0,1-.38.08,1,1,0,0,1-.9-0.58,0.94,0.94,0,0,1,0-.74,1,1,0,0,1,.85-0.57h0.05Zm0,1.69a0.71,0.71,0,0,0,.29-0.06,0.75,0.75,0,0,0,.23-0.16,0.74,0.74,0,0,0-.23-1.2,0.72,0.72,0,0,0-.29-0.06,0.75,0.75,0,0,0-.29.06,0.73,0.73,0,0,0-.24.16,0.72,0.72,0,0,0,.53,1.22v0Zm0.06-1.19a0.4,0.4,0,0,1,.26.08,0.25,0.25,0,0,1,.09.21,0.24,0.24,0,0,1-.07.18,0.35,0.35,0,0,1-.21.09L99,90.11H98.76l-0.27-.33H98.4v0.33H98.21V89.19Zm-0.22.17v0.24h0.22a0.21,0.21,0,0,0,.12,0,0.1,0.1,0,0,0,0-.09,0.1,0.1,0,0,0,0-.09,0.21,0.21,0,0,0-.12,0Z"/>
  <rect fill="#7673c0" x="42.5" y="7.7" width="31.5" height="56.61"/>
  <path fill="#eb001b" d="M44.5,36A35.94,35.94,0,0,1,58.25,7.7a36,36,0,1,0,0,56.61A35.94,35.94,0,0,1,44.5,36Z"/>
  <path fill="#00a1df" d="M113.06,58.31V57.19h0.47V57h-1.19v0.24h0.47v1.16Zm2.31,0v-1.4H115l-0.42,1-0.42-1H113.8v1.4h0.26v-1l0.39,0.91h0.27l0.39-.91v1.06h0.26Z"/>
  <path fill="#00a1df" d="M116.49,36a36,36,0,0,1-58.24,28.3,36,36,0,0,0,0-56.61A36,36,0,0,1,116.5,36h0Z"/>
</svg>
