<svg xmlns="http://www.w3.org/2000/svg" viewBox="0 0 604.4 526.98">
  <title>payment-ideal</title>
  <rect x="67.18" y="296.62" width="96.85" height="160.82"/>
  <ellipse cx="116.52" cy="216.22" rx="54.82" ry="54.83"/>
  <path d="M347.48,0H0V527H347.48v-0.1c75.9-1,136-19.89,178.7-56.19,51.9-44.15,78.21-113.86,78.21-207.19,0-44.61-6.92-84.63-20.57-118.94-13.06-32.82-32.35-60.73-57.35-82.94-44-39.13-105.83-60.29-179-61.49V0Zm-6.58,35c67.34,0,123.47,18.25,162.31,52.77,43.91,39,66.17,98.14,66.17,175.72C569.4,417.24,494.66,492,340.91,492H35V35H340.91Z"/>
  <path fill="#cd0067" d="M331.35,457.62H208.5v-380H326.39c102.45,0,211.5,40.43,211.5,190.5,0,158.65-109.05,189.51-211.5,189.51h5Z"/>
  <path fill="#fff" d="M472.93,267.14V176.45h18.44v75.19H537.3v15.5H472.93Z"/>
  <path fill="#fff" d="M470.43,174v95.69H539.8v-20.5H493.86V174H470.43Zm18.44,5v75.19H534.8v10.5H475.43V179h13.44Z"/>
  <path fill="#fff" d="M457.5,267.14H437.42l-8-20.75H392.91l-7.57,20.75H365.75l35.53-91.44h19.65Zm-34-36.25L410.91,197l-12.35,33.87h25Z"/>
  <path fill="#fff" d="M399.57,173.2L362.1,269.64h25l7.57-20.75h33.06l8,20.75h25.5L422.63,173.2H399.57Zm19.67,5,34.57,86.44H439.13l-8-20.75h-40l-7.57,20.75H369.4L403,178.2h16.25Z"/>
  <path fill="#fff" d="M395,233.39h32.12l-16.23-43.61Zm15.95-29.14,9,24.14H402.13Z"/>
  <path fill="#fff" d="M284.81,267.14V175.7H352.5v15.5H303.25v20.25h45.81V227H303.25v24.69h51v15.5H284.81Z"/>
  <path fill="#fff" d="M282.31,173.2v96.44h74.44v-20.5h-51V229.45h45.81V209H305.75V193.7H355V173.2H282.31Zm67.69,5v10.5H300.75V214h45.81v10.5H300.75v29.69h51v10.5H287.31V178.2H350Z"/>
  <path fill="#fff" d="M187.33,175.7h33.73q11.41,0,17.4,1.75a30.57,30.57,0,0,1,13.78,8.42A40,40,0,0,1,261,200.69q3,8.76,3,21.61a60.12,60.12,0,0,1-2.81,19.46,40.31,40.31,0,0,1-9.79,16.15,32.43,32.43,0,0,1-13,7.3q-6.11,1.93-16.33,1.93H187.33V175.7Zm18.44,15.5v60.44h13.81a50.62,50.62,0,0,0,11.19-.87,17.11,17.11,0,0,0,7.47-3.8q3-2.68,4.84-8.81T245,221.45q0-10.58-1.87-16.25a20.86,20.86,0,0,0-5.25-8.84,17.64,17.64,0,0,0-8.56-4.3q-3.88-.87-15.19-0.87h-8.31Z"/>
  <path fill="#fff" d="M184.83,173.2v96.44h37.23c7,0,12.79-.69,17.09-2.05a35,35,0,0,0,14-7.89,43,43,0,0,0,10.41-17.13,62.87,62.87,0,0,0,2.94-20.27c0-8.8-1.05-16.34-3.13-22.42A42.6,42.6,0,0,0,254,184.15a33.17,33.17,0,0,0-14.89-9.1c-4.26-1.24-10.18-1.85-18.1-1.85H184.83Zm36.23,5c7.33,0,13,.55,16.7,1.65a28.23,28.23,0,0,1,12.66,7.74,37.66,37.66,0,0,1,8.18,13.9c1.9,5.55,2.86,12.55,2.86,20.8a57.94,57.94,0,0,1-2.67,18.65,38,38,0,0,1-9.17,15.17,30.15,30.15,0,0,1-12,6.71c-3.8,1.2-9,1.81-15.57,1.81H189.83V178.2h31.23Z"/>
  <path fill="#fff" d="M203.26,188.7v65.44h16.31a52.21,52.21,0,0,0,11.8-.95,19.64,19.64,0,0,0,8.53-4.36c2.34-2.11,4.16-5.36,5.56-9.93,1.34-4.37,2-10.07,2-17.44s-0.65-13-2-17a23.4,23.4,0,0,0-5.91-9.87,20.18,20.18,0,0,0-9.75-4.92c-2.77-.62-7.92-0.93-15.72-0.93H203.26Zm10.81,5c9.12,0,13,.44,14.64.81a15.29,15.29,0,0,1,7.4,3.68,18.52,18.52,0,0,1,4.59,7.8c1.16,3.5,1.75,8.71,1.75,15.46s-0.59,12.15-1.77,16c-1.11,3.63-2.5,6.21-4.13,7.68a14.72,14.72,0,0,1-6.4,3.23,48.77,48.77,0,0,1-10.58.8H208.26V193.7h5.81Z"/>
</svg>
