<svg xmlns="http://www.w3.org/2000/svg" viewBox="0 0 428.09 140.6" width="74" height="28">
  <title>icon-payment-american-express</title>
  <path fill="#0098cd" d="M110.34,0.44L95.91,32.73,81.38,0.44H60.53V48.22L40.47,0.44H21.91L0,52.44H14.43l4.66-10.91H43.2l4.62,10.91h26V16.72L90.45,52.44h10.82l16.54-35.9v35.9h13.38v-52H110.34ZM24.72,28.25l6.43-15.49,6.42,15.49H24.72Z"/>
  <polyline  fill="#0098cd" points="138.49 52.44 138.49 0.45 179.67 0.45 179.67 12.58 151.78 12.58 151.78 20.59 178.97 20.59 178.97 32.38 151.78 32.38 151.78 41.18 179.67 41.18 179.67 52.44 138.49 52.44"/>
  <path  fill="#0098cd" d="M221.37,52.44V42.32s-0.54-7.92-8.8-7.92H199.72v18H186.53V0.4h32s16.72-2,16.72,15.22a13.25,13.25,0,0,1-7.39,12.14s6.42,3,6.42,11.79V52.44H221.37M199.72,22.17h13.64c4,0,7.22-2.2,7.22-4.93s-3.26-4.93-7.22-4.93H199.72v9.86h0"/>
  <polyline  fill="#0098cd" points="240.74 52.62 240.74 0.45 254.02 0.45 254.02 52.62 240.74 52.62"/>
  <path fill="#0098cd" d="M377.11,52.44L356.17,17.69V52.44H330.31l-4.67-10.91H301.53L297,52.44H276.27S258.5,49.89,258.5,27.89C258.5-1,278.66.18,279.35,0l16.28,0.44v11.7l-13.37.17s-8.71,0-9.78,11.35a35.19,35.19,0,0,0-.17,3.61c0,17.58,15.26,12.12,15.75,12l16.36-38.8h18.47L342.7,47.6V0.44h18.65L382,34.67V0.44h13.29v52H377.11M307.16,28.25H320l-6.33-15.49-6.51,15.49h0"/>
  <path fill="#0098cd" d="M184.33,140.52H172.8l-14-15.4-14.09,15.4H95.64V88.43h48L158.82,105,174,88.52h10.12V88.43h32s16.72-1.85,16.72,15.3c0,15.31-5.55,20.07-22.62,20.07H197.35v16.72h-13m-16.54-25.6L184.16,133V96.87l-16.36,18h0m-58.87,14.34h27.8l13-14.34-13-14.26h-27.8v8H136v11.8H108.9v8.8h0m88.43-19H211c4,0,7.22-2.2,7.22-4.93s-3.26-4.93-7.22-4.93H197.35v9.85h0"/>
  <path fill="#0098cd" d="M272.32,140.6V130.48s-0.53-7.91-8.8-7.91H250.67v18h-13.2v-52h32s16.72-2,16.72,15.22A13.27,13.27,0,0,1,278.83,116s6.34,3,6.34,11.78V140.6H272.32m-21.64-30.26h13.64c4,0,7.21-2.2,7.21-4.93s-3.26-4.93-7.21-4.93H250.67v9.85h0"/>
  <polyline  fill="#0098cd" points="291.68 140.52 291.68 88.6 332.85 88.6 332.85 100.66 304.96 100.66 304.96 108.66 332.15 108.66 332.15 120.46 304.96 120.46 304.96 129.26 332.85 129.26 332.85 140.52 291.68 140.52"/>
  <path fill="#0098cd" d="M362.33,140.43h-23.5v-12h20.6s7.39,0.88,7.39-4.12c0-4.68-11.17-4.32-11.17-4.32s-18.22,1.59-18.22-15.48,16.45-16,16.45-16h25.35v12.14H358.82s-7-1.41-7,3.7c0,4.3,9.58,3.68,9.58,3.68s20.15-1.49,20.15,14.17c0,16.79-13,18.28-17.58,18.28a15.29,15.29,0,0,1-1.6-.07"/>
  <path fill="#0098cd" d="M408.87,140.43H385.38v-12h20.51s7.48,0.88,7.48-4.12c0-4.68-11.17-4.32-11.17-4.32S384,121.6,384,104.53s16.45-16,16.45-16h25.26v12.14H405.35s-7-1.41-7,3.7c0,4.3,9.6,3.68,9.6,3.68s20.14-1.49,20.14,14.17c0,16.79-13,18.28-17.58,18.28a15.29,15.29,0,0,1-1.6-.07"/>
</svg>
